<svg version="1.0" xmlns="http://www.w3.org/2000/svg"
 width="283" height="64" viewBox="0 0 512.000000 512.000000"
 preserveAspectRatio="xMidYMid meet" fill="none" stroke="black">

<g transform="translate(0.000000,512.000000) scale(0.100000,-0.100000)"
fill="#000000" stroke="none">
<path d="M0 2560 l0 -2560 2560 0 2560 0 0 2560 0 2560 -2560 0 -2560 0 0
-2560z m2890 2125 c240 -36 438 -94 590 -173 222 -117 322 -188 489 -348 293
-280 509 -679 591 -1089 11 -55 24 -116 30 -135 6 -20 10 -170 10 -361 l0
-326 -29 -99 c-15 -54 -35 -126 -44 -159 -22 -85 -61 -194 -86 -240 -12 -22
-21 -46 -21 -53 0 -7 -13 -42 -30 -77 -16 -35 -30 -69 -30 -74 0 -5 -10 -22
-23 -38 -13 -15 -43 -62 -67 -103 -54 -94 -77 -125 -162 -223 -76 -86 -204
-206 -260 -242 -20 -13 -39 -29 -42 -34 -13 -21 -134 -95 -254 -157 -145 -75
-281 -128 -397 -155 -44 -11 -111 -27 -150 -36 -56 -14 -117 -17 -300 -18
-207 0 -238 2 -305 22 -41 12 -105 26 -142 32 -103 17 -384 135 -417 174 -6 8
-15 31 -18 51 -5 29 -1 41 23 70 65 77 263 338 281 370 6 11 14 32 18 46 6 26
4 27 -119 104 -78 48 -260 220 -293 277 -18 30 -71 53 -88 39 -7 -6 -70 -85
-141 -177 -210 -270 -219 -278 -275 -230 -107 90 -329 574 -363 792 -4 22 -15
90 -26 150 -30 169 -38 346 -24 509 15 170 47 355 80 454 13 40 29 92 35 115
17 66 124 306 159 357 10 14 37 59 61 100 24 41 64 100 89 130 25 30 65 81 89
112 24 32 62 74 85 94 22 20 66 60 96 88 126 117 250 200 423 284 163 79 239
107 382 138 238 53 407 64 575 39z"/>
<path d="M2534 4010 c-180 -24 -410 -126 -574 -256 -368 -291 -565 -759 -529
-1259 9 -126 14 -155 58 -315 24 -88 76 -214 118 -285 27 -46 33 -50 71 -53
37 -3 43 0 64 32 23 34 194 260 323 426 36 47 104 135 150 195 46 61 104 137
130 170 109 141 252 330 274 362 14 19 41 43 62 53 36 19 38 19 61 1 20 -16
84 -96 236 -298 173 -229 293 -386 332 -433 25 -30 66 -82 90 -115 24 -33 71
-92 105 -131 33 -39 93 -112 133 -163 69 -86 75 -91 111 -91 36 0 38 1 74 78
58 122 88 202 102 272 7 36 21 85 32 110 16 40 18 75 18 315 -1 267 -1 271
-29 360 -92 297 -182 459 -361 646 -151 159 -322 264 -549 338 -141 46 -337
62 -502 41z"/>
<path d="M2680 1947 c-32 -21 -62 -57 -210 -252 -157 -208 -183 -241 -201
-260 -10 -11 -25 -39 -33 -62 -13 -38 -13 -43 3 -57 25 -23 176 -72 265 -86
48 -8 138 -11 253 -8 163 5 186 8 273 36 115 36 147 51 154 68 13 34 -26 93
-247 377 -27 34 -73 95 -103 135 -53 71 -74 94 -105 119 -13 11 -22 9 -49 -10z"/>
</g>
</svg>
