<?xml version="1.0" standalone="no"?>
<!DOCTYPE svg PUBLIC "-//W3C//DTD SVG 20010904//EN"
 "http://www.w3.org/TR/2001/REC-SVG-20010904/DTD/svg10.dtd">
<svg version="1.0" xmlns="http://www.w3.org/2000/svg"
 width="262.000000pt" height="70.000000pt" viewBox="0 0 262.000000 70.000000"
 preserveAspectRatio="xMidYMid meet" fill="none" stroke="none">

<g transform="translate(0.000000,70.000000) scale(0.100000,-0.100000)"
fill="#000000" stroke="none">
<path d="M0 350 l0 -350 1310 0 1310 0 0 350 0 350 -1310 0 -1310 0 0 -350z
m421 44 c15 -15 33 -42 40 -61 27 -84 -60 -175 -151 -156 -23 4 -28 10 -27 32
2 22 -2 26 -26 26 -33 0 -47 18 -47 63 0 112 132 172 211 96z m308 2 c25 -23
28 -72 4 -98 -13 -14 -31 -18 -89 -18 l-73 0 -3 -47 c-3 -41 -6 -48 -25 -51
-22 -3 -23 0 -23 67 l0 70 88 3 c79 3 87 5 87 23 0 18 -8 20 -70 23 -46 2 -75
8 -87 19 -30 27 -9 35 82 31 69 -2 92 -7 109 -22z m309 -3 c3 -21 0 -22 -90
-25 -85 -3 -93 -5 -93 -23 0 -18 8 -20 73 -23 63 -2 73 -5 70 -20 -3 -13 -18
-18 -73 -22 -62 -4 -70 -7 -70 -25 0 -18 8 -20 93 -23 91 -3 92 -3 92 -28 l0
-25 -117 3 -118 3 -3 104 c-1 58 0 111 2 118 4 11 31 13 118 11 108 -3 113 -4
116 -25z m270 -118 l3 -140 -80 79 -80 79 -3 -54 c-3 -47 -6 -54 -25 -57 -23
-3 -23 -2 -23 115 l0 118 80 -80 80 -80 0 76 c0 79 4 92 30 87 12 -3 15 -26
18 -143z m412 50 l5 -90 65 0 65 0 5 90 c5 82 7 90 25 90 18 0 20 -8 23 -79 5
-129 -18 -156 -129 -156 -50 0 -64 4 -84 25 -23 22 -25 32 -25 113 0 92 4 105
30 100 12 -3 16 -23 20 -93z m460 83 c0 -25 -15 -36 -50 -40 l-35 -3 -3 -92
c-2 -84 -5 -93 -22 -93 -17 0 -20 9 -22 93 l-3 92 -47 3 c-38 2 -48 7 -48 21
0 10 3 21 7 24 3 4 55 7 115 7 80 0 108 -3 108 -12z m187 -8 c70 -42 80 -127
21 -182 -50 -47 -137 -36 -171 22 -22 36 -22 99 -1 129 18 25 67 50 99 51 11
0 34 -9 52 -20z m-794 -102 c62 -102 67 -114 57 -138 -11 -23 -13 -24 -24 -7
-6 10 -33 52 -59 94 l-48 76 -25 -36 c-29 -44 -30 -55 -4 -59 19 -3 20 -4 5
-25 -13 -19 -26 -23 -66 -23 -27 0 -49 3 -49 6 0 11 132 224 139 224 3 0 37
-51 74 -112z"/>
<path d="M279 361 c-29 -30 -37 -64 -19 -91 7 -12 15 -7 43 25 l34 39 32 -37
c37 -41 51 -40 51 3 0 42 -9 59 -41 75 -42 22 -67 18 -100 -14z"/>
<path d="M322 248 c-19 -19 -14 -28 18 -28 28 0 29 2 18 20 -15 23 -20 24 -36
8z"/>
<path d="M2260 350 c-27 -27 -25 -66 5 -95 30 -30 54 -31 89 -4 50 40 21 119
-44 119 -17 0 -39 -9 -50 -20z"/>
</g>
</svg>
