<?xml version="1.0" standalone="no"?>
<!DOCTYPE svg PUBLIC "-//W3C//DTD SVG 20010904//EN"
 "http://www.w3.org/TR/2001/REC-SVG-20010904/DTD/svg10.dtd">
<svg version="1" xmlns="http://www.w3.org/2000/svg"
 width="28" height="28" viewBox="0 0 512 512"
 preserveAspectRatio="xMidYMid meet" fill="none" stroke="none" stroke-opacity="0">

<g fill="#000000" stroke="none" transform="matrix(0.1,0,0,-0.1,0,512)">
    <path transform="matrix(1.1563909774436092,0,0,1.0939849624059572,-161.19079328297175,-872255.3627777627)" d="M -278.88008267611275 799684.8572317966 l 0 -2560 l 2560 0 l 2560 0 l 0 2560 l 0 2560 l -2560 0 l -2560 0 l 0 -2560 z m 2890 2125 c 240 -36 438 -94 590 -173 c 222 -117 322 -188 489 -348 c 293.00000000000045 -280 509 -679 591 -1089 c 11 -55 24 -116 30 -135 c 6 -20 10 -170 10 -361 l 0 -326 l -29 -99 c -15 -54 -34.99999999999818 -126 -43.99999999999818 -159 c -22 -85 -61.00000000000182 -194 -86.00000000000182 -240 c -12 -22 -21 -46 -21 -53 c 0 -7 -13 -42 -30 -77 c -15.99999999999909 -35 -29.99999999999909 -69 -29.99999999999909 -74 c 0 -5 -10 -22 -23 -38 c -13.000000000000455 -15 -43.000000000002274 -62 -67.00000000000045 -103 c -54.000000000000455 -94 -77.00000000000045 -125 -162.00000000000045 -223 c -76 -86 -204 -206 -260 -242 c -20 -13 -39 -29 -42 -34 c -13 -21 -134 -95 -254 -157 c -145 -75 -281 -128 -397 -155 c -44 -11 -111 -27 -150 -36 c -56 -14 -117 -17 -300 -18 c -207 0 -238 2 -305 22 c -41 12 -105 26 -142 32 c -103 17 -384 135 -417 174 c -6 8 -15 31 -18 51 c -5 29 -1 41 23 70 c 65 77 263 338 281 370 c 6 11 14 32 18 46 c 6 26 4 27 -119 104 c -78 48 -260 220 -293 277 c -18 30 -71 53 -88 39 c -7 -6 -70 -85 -141 -177 c -210 -270 -219 -278 -275 -230 c -107 90 -329 574 -363 792 c -4 22 -15 90 -26 150 c -30 169 -38 346 -24 509 c 15 170 47 355 80 454 c 13 40 29 92 35 115 c 17 66 124 306 159 357 c 10 14 37 59 61 100 c 24 41 64 100 89 130 c 25 30 65 81 89 112 c 24 32 62 74 85 94 c 22 20 66 60 96 88 c 126 117 250 200 423 284 c 163 79 239 107 382 138 c 238 53 407 64 575 39 z"/>
    <path transform="matrix(1.1563909774436105,0,0,1.0939849624059084,-169.80455572637993,-1000027.3202381965)" d="M 2262.5414768786222 917929.8424018627 c -180 -24 -410 -126 -574 -256 c -368 -291 -565 -759 -529 -1259 c 9 -126 14 -155 58 -315 c 24 -88 76 -214 118 -285 c 27 -46 33 -50 71 -53 c 37 -3 43 0 64 32 c 23 34 194 260 323 426 c 36 47 104 135 150 195 c 46 61 104 137 130 170 c 109 141 252 330 274 362 c 14 19 41 43 62 53 c 36 19 38 19 61 1 c 20 -16 84 -96 236 -298 c 173 -229 293 -386 332 -433 c 25 -30 66 -82 90 -115 c 24 -33 71 -92 105 -131 c 33 -39 93 -112 133 -163 c 69 -86 75 -91 111 -91 c 36 0 38 1 74 78 c 58 122 88 202 102 272 c 7 36 21 85 32 110 c 16 40 18 75 18 315 c -1 267 -1 271 -29 360 c -92 297 -182 459 -361 646 c -151 159 -322 264 -549 338 c -141 46 -337 62 -502 41 z"/>
    <path transform="matrix(1.1563909774436123,0,0,1.0939849624068216,-171.5514667462171,-542944.4377502812)" d="M 2410.088498288969 498052.248787023 c -32 -21 -62 -57 -210 -252 c -157 -208 -183 -241 -201 -260 c -10 -11 -25 -39 -33 -62 c -13 -38 -13 -43 3 -57 c 25 -23 176 -72 265 -86 c 48 -8 138 -11 253 -8 c 163 5 186 8 273 36 c 115 36 147 51 154 68 c 13 34 -26 93 -247 377 c -27 34 -73 95 -103 135 c -53 71 -74 94 -105 119 c -13 11 -22 9 -49 -10 z"/>
</g>
</svg>
