<?xml version="1.0" standalone="no"?>
<!DOCTYPE svg PUBLIC "-//W3C//DTD SVG 20010904//EN"
 "http://www.w3.org/TR/2001/REC-SVG-20010904/DTD/svg10.dtd">
<svg version="1" xmlns="http://www.w3.org/2000/svg"
 width="32" height="10" viewBox="0 0 262 70"
 preserveAspectRatio="xMidYMid meet" fill="none" stroke="none" stroke-opacity="0">
<g fill="#000000" stroke="none" transform="matrix(0.1,0,0,-0.1,0,70)">
    <path transform="matrix(1.1522435897435888,0,0,1.3999084249084253,-241.14614151963724,-653.9542320481919)" d="M 4.437819622049915 695.581671614198 l 0 -350 l 1310 0 l 1310.0000000000014 0 l 9.094947017729282e-13 350 l 0 349.9999999999992 l -1310.000000000003 0 l -1310 0 l 4.547473508864641e-13 -349.9999999999992 z m 421 44 c 15 -15 33 -42 40 -61 c 27 -84 -60 -175 -151 -156 c -23 4 -28 10 -27 32 c 2 22 -2 26 -26 26 c -33 0 -47 18 -47 63 c 0 112 132 172 211 96 z m 308 2 c 25 -23 28 -72 4 -98 c -13 -14 -31 -18 -89 -18 l -73 0 l -3 -47 c -3 -41 -6 -48 -25 -51 c -22 -3 -23 0 -23 67 l 0 70 l 88 3 c 79 3 87 5 87 23 c 0 18 -8 20 -70 23 c -46 2 -75 8 -87 19 c -30 27 -9 35 82 31 c 69 -2 92 -7 109 -22 z m 308.9999999999999 -3 c 3 -21 0 -22 -90 -25 c -85 -3 -93 -5 -93 -23 c 0 -18 8 -20 73 -23 c 63 -2 73 -5 70 -20 c -3 -13 -18 -18 -73 -22 c -62 -4 -70 -7 -70 -25 c 0 -18 8 -20 93 -23 c 91 -3 92 -3 92 -28 l 0 -25 l -117 3 l -118 3 l -3 104 c -1 58 0 111 2 118 c 4 11 31 13 118 11 c 108 -3 113 -4 116 -25 z m 270 -118 l 3 -140 l -80 79 l -80 79 l -3 -54 c -3 -47 -6 -54 -25 -57 c -23 -3 -23 -2 -23 115 l 0 118 l 80 -80 l 80 -80 l 0 76 c 0 79 4 92 30 87 c 12 -3 15 -26 18 -143 z m 411.99999999999955 50 l 5 -90 l 65 0 l 64.99999999999955 0 l 5 90 c 5 82 7 90 25.000000000000455 90 c 17.999999999999545 0 20 -8 23 -79 c 4.999999999999545 -129 -18.000000000000455 -156 -129 -156 c -50 0 -64 4 -84 25 c -23 22 -25 32 -25 113 c 0 92 4 105 30 100 c 12 -3 16 -23 20 -93 z m 460.00000000000205 83 c 0 -25 -15.00000000000091 -36 -50.000000000000455 -40 l -35 -3 l -3 -92 c -2 -84 -5 -93 -22.000000000000455 -93 c -16.99999999999909 0 -20 9 -22 93 l -3 92 l -47.00000000000023 3 c -37.99999999999909 2 -48 7 -48 21 c 0 10 3.0000000000009095 21 7.0000000000009095 24 c 3 4 54.999999999999545 7 114.99999999999977 7 c 80 0 108.00000000000045 -3 108.00000000000045 -12 z m 187 -8 c 70 -42 80 -127 21 -182 c -50 -47 -137 -36 -171 22 c -22 36 -22 99 -1 129 c 18 25 67 50 99 51 c 11 0 34 -9 52 -20 z m -794.0000000000016 -102 c 62 -102 66.99999999999955 -114 57 -138 c -11 -23 -13 -24 -24 -7 c -6 10 -33 52 -59 94 l -48 76 l -25 -36 c -29 -44 -30 -55 -4 -59 c 19 -3 20 -4 5 -25 c -13 -19 -26 -23 -66 -23 c -27 0 -49 3 -49 6 c 0 11 132 224 139 224 c 3 0 37 -51 74 -112 z"/>
    <path transform="matrix(1.1522435897435865,0,0,1.3999084249084224,-121.58568490706756,-680.1428693117418)" d="M 179.47464169960227 725.8345192987877 c -29 -30 -37 -64 -19 -91 c 7 -12 15 -7 43 25 l 33.99999999999994 39 l 32 -37 c 37 -41 51 -40 51 3 c 0 42 -9 59 -41 75 c -42 22 -66.99999999999994 18 -99.99999999999994 -14 z"/>
    <path transform="matrix(1.1522435897435872,0,0,1.3999084249083846,-122.12384935606497,-774.7451230550854)" d="M 223.0416995802338 682.5301597993549 c -19 -19 -14 -28 18.000000000000057 -28 c 28 0 29 2 18 20 c -15 23 -20 24 -36.00000000000006 8 z"/>
    <path transform="matrix(1.152243589743601,0,0,1.3999084249084228,-364.53281508208374,-713.2491241378941)" d="M 2371.6216642714926 739.2379365203009 c -27 -27 -25 -66 5 -95 c 30 -30 54 -31 89 -4 c 50 40 21 119 -44 119 c -17 0 -39 -9 -50 -20 z"/>
</g>
</svg>
